<?xml version="1.0" encoding="UTF-8" standalone="no"?><!DOCTYPE svg PUBLIC "-//W3C//DTD SVG 1.1//EN" "http://www.w3.org/Graphics/SVG/1.1/DTD/svg11.dtd"><svg width="162px" height="48px" version="1.1" xmlns="http://www.w3.org/2000/svg" xmlns:xlink="http://www.w3.org/1999/xlink" xml:space="preserve" xmlns:serif="http://www.serif.com/" style="fill-rule:evenodd;clip-rule:evenodd;stroke-linejoin:round;stroke-miterlimit:2;"><path d="M162,12c0,-6.623 -5.377,-12 -12,-12l-138,0c-6.623,0 -12,5.377 -12,12l0,24c0,6.623 5.377,12 12,12l138,0c6.623,0 12,-5.377 12,-12l0,-24Z"/><path d="M157,14.5c0,-5.243 -4.257,-9.5 -9.5,-9.5l-133,0c-5.243,0 -9.5,4.257 -9.5,9.5l0,19c0,5.243 4.257,9.5 9.5,9.5l133,0c5.243,0 9.5,-4.257 9.5,-9.5l0,-19Z" style="fill:#fff;"/><path d="M61.687,22.108l-2.125,-0c-0.061,-0.349 -0.173,-0.658 -0.335,-0.929c-0.163,-0.271 -0.366,-0.501 -0.608,-0.69c-0.243,-0.19 -0.518,-0.333 -0.827,-0.429c-0.309,-0.097 -0.641,-0.145 -0.997,-0.145c-0.633,-0 -1.193,0.158 -1.682,0.474c-0.489,0.316 -0.871,0.779 -1.148,1.387c-0.276,0.608 -0.415,1.349 -0.415,2.224c0,0.89 0.14,1.639 0.418,2.247c0.278,0.608 0.661,1.066 1.148,1.375c0.487,0.309 1.044,0.463 1.673,0.463c0.349,0 0.675,-0.046 0.98,-0.139c0.305,-0.093 0.58,-0.23 0.824,-0.412c0.244,-0.182 0.451,-0.405 0.619,-0.67c0.169,-0.266 0.285,-0.569 0.35,-0.909l2.125,0.011c-0.08,0.553 -0.251,1.072 -0.514,1.557c-0.264,0.485 -0.607,0.912 -1.032,1.281c-0.424,0.369 -0.92,0.657 -1.488,0.864c-0.568,0.206 -1.199,0.309 -1.892,0.309c-1.023,0 -1.936,-0.236 -2.739,-0.71c-0.803,-0.473 -1.436,-1.157 -1.898,-2.051c-0.462,-0.894 -0.693,-1.966 -0.693,-3.216c0,-1.254 0.233,-2.327 0.699,-3.219c0.466,-0.892 1.1,-1.575 1.903,-2.048c0.803,-0.474 1.713,-0.71 2.728,-0.71c0.647,-0 1.25,0.091 1.806,0.272c0.557,0.182 1.054,0.448 1.489,0.799c0.436,0.35 0.795,0.778 1.077,1.284c0.282,0.506 0.467,1.082 0.554,1.73Z" style="fill-rule:nonzero;"/><path d="M64.971,29.818l-2.25,0l4.096,-11.636l2.603,-0l4.102,11.636l-2.25,0l-3.108,-9.25l-0.091,0l-3.102,9.25Zm0.074,-4.562l6.136,-0l0,1.693l-6.136,-0l-0,-1.693Z" style="fill-rule:nonzero;"/><path d="M73.079,18.182l2.381,-0l2.846,5.148l0.114,-0l2.846,-5.148l2.381,-0l-4.233,7.295l0,4.341l-2.102,0l-0,-4.341l-4.233,-7.295Z" style="fill-rule:nonzero;"/><path d="M89.09,29.818l-3.943,0l0,-11.636l4.023,-0c1.155,-0 2.148,0.232 2.98,0.696c0.831,0.464 1.471,1.13 1.917,1.997c0.447,0.867 0.671,1.905 0.671,3.114c-0,1.212 -0.225,2.253 -0.673,3.125c-0.449,0.871 -1.095,1.539 -1.938,2.005c-0.843,0.466 -1.855,0.699 -3.037,0.699Zm-1.835,-1.824l1.733,0c0.811,0 1.487,-0.148 2.028,-0.446c0.542,-0.297 0.949,-0.742 1.222,-1.335c0.273,-0.593 0.409,-1.334 0.409,-2.224c0,-0.891 -0.136,-1.63 -0.409,-2.219c-0.273,-0.589 -0.675,-1.03 -1.207,-1.324c-0.533,-0.294 -1.193,-0.44 -1.981,-0.44l-1.795,-0l-0,7.988Z" style="fill-rule:nonzero;"/><path d="M106.3,18.182l0,11.636l-1.875,0l-5.483,-7.926l-0.096,0l-0,7.926l-2.108,0l-0,-11.636l1.886,-0l5.478,7.932l0.102,-0l-0,-7.932l2.096,-0Z" style="fill-rule:nonzero;"/><path d="M108.59,29.818l0,-11.636l4.364,-0c0.894,-0 1.645,0.166 2.253,0.5c0.608,0.333 1.068,0.791 1.38,1.372c0.313,0.581 0.469,1.241 0.469,1.98c0,0.746 -0.157,1.409 -0.471,1.989c-0.315,0.579 -0.779,1.035 -1.393,1.366c-0.613,0.332 -1.369,0.497 -2.267,0.497l-2.892,0l0,-1.733l2.608,0c0.523,0 0.951,-0.091 1.284,-0.272c0.334,-0.182 0.581,-0.432 0.742,-0.75c0.161,-0.319 0.241,-0.684 0.241,-1.097c0,-0.413 -0.08,-0.776 -0.241,-1.091c-0.161,-0.314 -0.409,-0.559 -0.744,-0.736c-0.336,-0.176 -0.767,-0.264 -1.293,-0.264l-1.932,0l0,9.875l-2.108,0Z" style="fill-rule:nonzero;"/><path d="M118.886,29.818l-0,-11.636l4.454,-0c0.841,-0 1.541,0.131 2.1,0.395c0.558,0.263 0.977,0.622 1.255,1.076c0.279,0.455 0.418,0.97 0.418,1.546c-0,0.473 -0.091,0.878 -0.273,1.213c-0.182,0.335 -0.426,0.607 -0.733,0.815c-0.307,0.209 -0.649,0.358 -1.028,0.449l-0,0.114c0.413,0.022 0.809,0.148 1.19,0.378c0.381,0.229 0.692,0.552 0.935,0.968c0.242,0.417 0.363,0.921 0.363,1.512c0,0.602 -0.145,1.143 -0.437,1.622c-0.292,0.479 -0.731,0.857 -1.318,1.133c-0.587,0.277 -1.326,0.415 -2.216,0.415l-4.71,0Zm2.108,-1.761l2.267,-0c0.765,-0 1.317,-0.147 1.656,-0.441c0.339,-0.293 0.508,-0.671 0.508,-1.133c0,-0.345 -0.085,-0.656 -0.255,-0.935c-0.171,-0.278 -0.413,-0.498 -0.728,-0.659c-0.314,-0.161 -0.689,-0.241 -1.125,-0.241l-2.323,-0l-0,3.409Zm-0,-4.926l2.085,-0c0.363,-0 0.691,-0.068 0.983,-0.202c0.291,-0.134 0.522,-0.326 0.69,-0.574c0.169,-0.248 0.253,-0.543 0.253,-0.883c-0,-0.451 -0.158,-0.822 -0.474,-1.114c-0.317,-0.292 -0.785,-0.438 -1.407,-0.438l-2.13,0l-0,3.211Z" style="fill-rule:nonzero;"/><g id="XMLID_801_"><path id="XMLID_802_" d="M37.224,21.861l-2.409,-0c-0.107,-0 -0.193,0.086 -0.193,0.193l-0,7.739c-0,0.107 0.086,0.194 0.193,0.194l2.409,-0c0.107,-0 0.194,-0.087 0.194,-0.194l-0,-7.739c-0,-0.107 -0.087,-0.193 -0.194,-0.193Z" style="fill-rule:nonzero;"/><path id="XMLID_803_" d="M36.021,18.013c-0.877,0 -1.59,0.713 -1.59,1.588c0,0.876 0.713,1.589 1.59,1.589c0.876,-0 1.588,-0.713 1.588,-1.589c0,-0.875 -0.712,-1.588 -1.588,-1.588Z" style="fill-rule:nonzero;"/><path id="XMLID_804_" d="M43.352,21.668c-0.968,0 -1.683,0.416 -2.117,0.889l0,-0.503c0,-0.107 -0.086,-0.193 -0.193,-0.193l-2.307,-0c-0.107,-0 -0.194,0.086 -0.194,0.193l0,7.739c0,0.107 0.087,0.194 0.194,0.194l2.403,-0c0.107,-0 0.194,-0.087 0.194,-0.194l-0,-3.829c-0,-1.29 0.35,-1.793 1.25,-1.793c0.98,0 1.057,0.806 1.057,1.86l0,3.762c0,0.107 0.087,0.194 0.194,0.194l2.405,-0c0.106,-0 0.193,-0.087 0.193,-0.194l0,-4.245c0,-1.918 -0.366,-3.88 -3.079,-3.88Z" style="fill-rule:nonzero;"/></g></svg>