<?xml version="1.0" encoding="UTF-8" standalone="no"?><!DOCTYPE svg PUBLIC "-//W3C//DTD SVG 1.1//EN" "http://www.w3.org/Graphics/SVG/1.1/DTD/svg11.dtd"><svg width="162px" height="48px" version="1.1" xmlns="http://www.w3.org/2000/svg" xmlns:xlink="http://www.w3.org/1999/xlink" xml:space="preserve" xmlns:serif="http://www.serif.com/" style="fill-rule:evenodd;clip-rule:evenodd;stroke-linejoin:round;stroke-miterlimit:2;"><path d="M162,12c0,-6.623 -5.377,-12 -12,-12l-138,0c-6.623,0 -12,5.377 -12,12l0,24c0,6.623 5.377,12 12,12l138,0c6.623,0 12,-5.377 12,-12l0,-24Z"/><path d="M157,14.5c0,-5.243 -4.257,-9.5 -9.5,-9.5l-133,0c-5.243,0 -9.5,4.257 -9.5,9.5l0,19c0,5.243 4.257,9.5 9.5,9.5l133,0c5.243,0 9.5,-4.257 9.5,-9.5l0,-19Z" style="fill:#fff;"/><path d="M15.151,18.182l2.579,-0l3.455,8.432l0.136,-0l3.455,-8.432l2.579,-0l0,11.636l-2.023,0l0,-7.994l-0.108,-0l-3.215,7.96l-1.512,0l-3.216,-7.977l-0.108,-0l0,8.011l-2.022,0l-0,-11.636Z" style="fill-rule:nonzero;"/><path d="M31.145,29.818l-2.25,0l4.096,-11.636l2.603,-0l4.102,11.636l-2.25,0l-3.108,-9.25l-0.091,0l-3.102,9.25Zm0.074,-4.562l6.136,-0l0,1.693l-6.136,-0l-0,-1.693Z" style="fill-rule:nonzero;"/><path d="M45.173,29.818l-3.943,0l0,-11.636l4.023,-0c1.155,-0 2.149,0.232 2.98,0.696c0.831,0.464 1.471,1.13 1.918,1.997c0.447,0.867 0.67,1.905 0.67,3.114c0,1.212 -0.224,2.253 -0.673,3.125c-0.449,0.871 -1.095,1.539 -1.938,2.005c-0.843,0.466 -1.855,0.699 -3.037,0.699Zm-1.835,-1.824l1.733,0c0.811,0 1.487,-0.148 2.028,-0.446c0.542,-0.297 0.949,-0.742 1.222,-1.335c0.273,-0.593 0.409,-1.334 0.409,-2.224c0,-0.891 -0.136,-1.63 -0.409,-2.219c-0.273,-0.589 -0.675,-1.03 -1.207,-1.324c-0.533,-0.294 -1.193,-0.44 -1.98,-0.44l-1.796,-0l0,7.988Z" style="fill-rule:nonzero;"/><path d="M52.821,29.818l0,-11.636l7.568,-0l0,1.767l-5.46,-0l-0,3.159l5.068,-0l0,1.767l-5.068,0l-0,3.176l5.506,0l-0,1.767l-7.614,0Z" style="fill-rule:nonzero;"/><path d="M66.514,29.818l0,-11.636l4.455,-0c0.841,-0 1.54,0.131 2.099,0.395c0.559,0.263 0.977,0.622 1.256,1.076c0.278,0.455 0.417,0.97 0.417,1.546c0,0.473 -0.09,0.878 -0.272,1.213c-0.182,0.335 -0.426,0.607 -0.733,0.815c-0.307,0.209 -0.65,0.358 -1.029,0.449l0,0.114c0.413,0.022 0.81,0.148 1.191,0.378c0.38,0.229 0.692,0.552 0.934,0.968c0.243,0.417 0.364,0.921 0.364,1.512c0,0.602 -0.146,1.143 -0.437,1.622c-0.292,0.479 -0.732,0.857 -1.319,1.133c-0.587,0.277 -1.325,0.415 -2.216,0.415l-4.71,0Zm2.108,-1.761l2.267,-0c0.765,-0 1.317,-0.147 1.656,-0.441c0.339,-0.293 0.509,-0.671 0.509,-1.133c-0,-0.345 -0.085,-0.656 -0.256,-0.935c-0.17,-0.278 -0.413,-0.498 -0.727,-0.659c-0.314,-0.161 -0.689,-0.241 -1.125,-0.241l-2.324,-0l0,3.409Zm0,-4.926l2.085,-0c0.364,-0 0.692,-0.068 0.983,-0.202c0.292,-0.134 0.522,-0.326 0.691,-0.574c0.168,-0.248 0.253,-0.543 0.253,-0.883c-0,-0.451 -0.159,-0.822 -0.475,-1.114c-0.316,-0.292 -0.785,-0.438 -1.406,-0.438l-2.131,0l0,3.211Z" style="fill-rule:nonzero;"/><path d="M76.236,18.182l2.38,-0l2.847,5.148l0.114,-0l2.846,-5.148l2.381,-0l-4.233,7.295l0,4.341l-2.102,0l-0,-4.341l-4.233,-7.295Z" style="fill-rule:nonzero;"/><path d="M102.236,22.108l-2.125,-0c-0.061,-0.349 -0.173,-0.658 -0.335,-0.929c-0.163,-0.271 -0.366,-0.501 -0.608,-0.69c-0.243,-0.19 -0.518,-0.333 -0.827,-0.429c-0.309,-0.097 -0.641,-0.145 -0.997,-0.145c-0.633,-0 -1.193,0.158 -1.682,0.474c-0.489,0.316 -0.871,0.779 -1.148,1.387c-0.276,0.608 -0.415,1.349 -0.415,2.224c0,0.89 0.14,1.639 0.418,2.247c0.278,0.608 0.661,1.066 1.148,1.375c0.487,0.309 1.044,0.463 1.673,0.463c0.349,0 0.675,-0.046 0.98,-0.139c0.305,-0.093 0.58,-0.23 0.824,-0.412c0.244,-0.182 0.451,-0.405 0.619,-0.67c0.169,-0.266 0.285,-0.569 0.35,-0.909l2.125,0.011c-0.08,0.553 -0.251,1.072 -0.514,1.557c-0.264,0.485 -0.607,0.912 -1.032,1.281c-0.424,0.369 -0.92,0.657 -1.488,0.864c-0.568,0.206 -1.199,0.309 -1.892,0.309c-1.023,0 -1.936,-0.236 -2.739,-0.71c-0.803,-0.473 -1.436,-1.157 -1.898,-2.051c-0.462,-0.894 -0.693,-1.966 -0.693,-3.216c0,-1.254 0.233,-2.327 0.699,-3.219c0.466,-0.892 1.1,-1.575 1.903,-2.048c0.803,-0.474 1.713,-0.71 2.728,-0.71c0.647,-0 1.25,0.091 1.806,0.272c0.557,0.182 1.054,0.448 1.489,0.799c0.436,0.35 0.795,0.778 1.077,1.284c0.282,0.506 0.467,1.082 0.554,1.73Z" style="fill-rule:nonzero;"/><path d="M105.52,29.818l-2.25,0l4.096,-11.636l2.603,-0l4.102,11.636l-2.25,0l-3.108,-9.25l-0.091,0l-3.102,9.25Zm0.074,-4.562l6.136,-0l0,1.693l-6.136,-0l-0,-1.693Z" style="fill-rule:nonzero;"/><path d="M113.628,18.182l2.381,-0l2.846,5.148l0.114,-0l2.846,-5.148l2.381,-0l-4.233,7.295l0,4.341l-2.102,0l-0,-4.341l-4.233,-7.295Z" style="fill-rule:nonzero;"/><path d="M129.639,29.818l-3.943,0l0,-11.636l4.023,-0c1.155,-0 2.148,0.232 2.98,0.696c0.831,0.464 1.471,1.13 1.917,1.997c0.447,0.867 0.671,1.905 0.671,3.114c-0,1.212 -0.225,2.253 -0.673,3.125c-0.449,0.871 -1.095,1.539 -1.938,2.005c-0.843,0.466 -1.855,0.699 -3.037,0.699Zm-1.835,-1.824l1.733,0c0.811,0 1.487,-0.148 2.028,-0.446c0.542,-0.297 0.949,-0.742 1.222,-1.335c0.273,-0.593 0.409,-1.334 0.409,-2.224c0,-0.891 -0.136,-1.63 -0.409,-2.219c-0.273,-0.589 -0.675,-1.03 -1.207,-1.324c-0.533,-0.294 -1.193,-0.44 -1.981,-0.44l-1.795,-0l-0,7.988Z" style="fill-rule:nonzero;"/><path d="M146.849,18.182l0,11.636l-1.875,0l-5.483,-7.926l-0.096,0l-0,7.926l-2.108,0l-0,-11.636l1.886,-0l5.478,7.932l0.102,-0l-0,-7.932l2.096,-0Z" style="fill-rule:nonzero;"/></svg>