<?xml version="1.0" encoding="UTF-8" standalone="no"?><!DOCTYPE svg PUBLIC "-//W3C//DTD SVG 1.1//EN" "http://www.w3.org/Graphics/SVG/1.1/DTD/svg11.dtd"><svg width="329px" height="48px" version="1.1" xmlns="http://www.w3.org/2000/svg" xmlns:xlink="http://www.w3.org/1999/xlink" xml:space="preserve" xmlns:serif="http://www.serif.com/" style="fill-rule:evenodd;clip-rule:evenodd;stroke-linejoin:round;stroke-miterlimit:2;"><g><g><path d="M48,11.25C48,5.041 42.959,0 36.75,0L11.25,0C5.041,0 0,5.041 0,11.25L0,36.75C0,42.959 5.041,48 11.25,48L36.75,48C42.959,48 48,42.959 48,36.75L48,11.25Z" style="fill:rgb(36,41,56);"/><g transform="matrix(0.905661,0,0,0.905661,2.27298,2.26413)"><path d="M20.068,9.153L11.398,9.153C9.671,9.153 8.252,10.628 8.252,12.453C8.19,14.215 9.547,15.688 11.244,15.752L20.16,15.752L20.068,9.153Z" style="fill:rgb(7,48,66);fill-rule:nonzero;"/></g><g transform="matrix(0.905661,0,0,0.905661,2.27298,2.26413)"><path d="M39.75,38.494L11.398,38.494C9.64,38.494 8.252,37.021 8.252,35.195L8.252,12.421C8.252,14.247 9.671,15.72 11.398,15.752L35.123,15.752C35.123,15.752 39.75,15.336 39.75,18.956L39.75,38.494Z" style="fill:rgb(66,133,244);fill-rule:nonzero;"/></g><g transform="matrix(0.905661,0,0,0.905661,2.27298,2.26413)"><path d="M26.515,26.835C27.78,25.842 28.027,23.984 27.071,22.703C26.546,21.998 25.744,21.55 24.88,21.518L24.972,21.518C25.127,21.486 25.312,21.486 25.467,21.518L25.467,19.692C25.467,19.468 25.374,19.276 25.189,19.18C24.911,19.019 24.572,19.116 24.418,19.404C24.356,19.5 24.325,19.596 24.356,19.724L24.356,21.582C22.813,21.838 21.734,23.344 21.98,24.977L21.98,25.009C22.104,25.778 22.505,26.483 23.122,26.931L17.908,38.526L21.302,38.526L23.708,33.209C23.986,32.568 24.726,32.28 25.374,32.601C25.621,32.729 25.837,32.953 25.96,33.209L28.459,38.526L31.914,38.526L26.515,26.835ZM24.757,26.323C23.769,26.323 22.998,25.49 22.998,24.465C22.998,23.44 23.8,22.639 24.787,22.671C25.25,22.671 25.652,22.863 25.991,23.184C26.7,23.888 26.7,25.041 26.021,25.778C25.713,26.099 25.25,26.323 24.757,26.323Z" style="fill:rgb(56,112,178);fill-rule:nonzero;"/></g><g transform="matrix(0.905661,0,0,0.905661,2.27298,2.26413)"><rect x="18.186" y="10.756" width="12.155" height="2.306" style="fill:white;fill-rule:nonzero;"/></g><g transform="matrix(0.905661,0,0,0.905661,2.27298,2.26413)"><path d="M23.831,22.639C24.787,22.639 25.59,23.472 25.559,24.497C25.559,25.49 24.757,26.323 23.769,26.291C22.813,26.291 22.042,25.458 22.042,24.465C22.042,23.984 22.227,23.536 22.567,23.184C22.906,22.831 23.368,22.639 23.831,22.639ZM24.51,21.582L24.51,19.66C24.51,19.436 24.418,19.244 24.233,19.147C23.955,18.987 23.615,19.083 23.461,19.372C23.399,19.468 23.368,19.564 23.399,19.692L23.399,21.55C21.856,21.806 20.777,23.312 21.024,24.945L21.024,24.977C21.148,25.746 21.548,26.451 22.165,26.899L15.594,41.537C15.348,42.05 15.378,42.69 15.718,43.171C16.211,43.907 17.168,44.1 17.877,43.587C18.124,43.427 18.309,43.171 18.432,42.915L22.813,33.177C23.091,32.536 23.831,32.248 24.479,32.568C24.726,32.697 24.942,32.921 25.065,33.177L29.539,42.819C29.909,43.619 30.834,43.939 31.606,43.555C32.377,43.171 32.686,42.21 32.315,41.409L25.559,26.835C26.793,25.81 27.009,23.92 26.021,22.639C25.652,22.126 25.127,21.774 24.51,21.582Z" style="fill:rgb(7,48,66);fill-rule:nonzero;"/></g><g transform="matrix(0.905661,0,0,0.905661,2.27298,2.26413)"><path d="M28.552,12.806C28.088,12.806 27.718,12.453 27.718,11.973C27.718,11.748 27.811,11.492 27.965,11.332C28.304,11.012 28.798,11.012 29.138,11.332C29.292,11.492 29.384,11.716 29.384,11.941C29.353,12.421 29.014,12.773 28.552,12.806ZM19.42,12.773C18.956,12.773 18.587,12.389 18.587,11.941C18.587,11.716 18.679,11.492 18.833,11.332C19.111,10.98 19.636,10.916 19.975,11.204L20.006,11.204C20.345,11.524 20.376,12.069 20.068,12.421L19.975,12.549C19.821,12.709 19.605,12.806 19.389,12.806L19.42,12.773ZM28.798,7.616L30.433,4.67C30.526,4.509 30.464,4.317 30.341,4.189C30.187,4.125 30.033,4.157 29.94,4.285L28.243,7.328C25.528,6.079 22.443,6.079 19.759,7.328L18.093,4.317C18.032,4.221 17.908,4.125 17.784,4.125C17.661,4.125 17.537,4.189 17.475,4.317C17.414,4.413 17.414,4.573 17.475,4.67L19.142,7.616C16.241,9.249 14.36,12.325 14.083,15.72L33.888,15.72C33.642,12.293 31.729,9.249 28.829,7.616" style="fill:rgb(61,220,132);fill-rule:nonzero;"/></g><g transform="matrix(0.905661,0,0,0.905661,2.27298,2.26413)"><path d="M37.007,22.095L35.711,22.095C35.649,22.126 35.588,22.19 35.588,22.286L35.588,43.587C35.588,43.683 35.649,43.747 35.742,43.747L37.099,43.747C38.673,43.747 39.938,42.402 39.938,40.801L39.938,19.116C39.938,20.749 38.673,22.063 37.099,22.063L37.007,22.063L37.007,22.095Z" style="fill:rgb(7,48,66);fill-rule:nonzero;"/></g></g></g><g transform="matrix(1,0,0,1,56.25,0)"><g><path d="M48,11.25C48,5.041 42.959,0 36.75,0L11.25,0C5.041,0 0,5.041 0,11.25L0,36.75C0,42.959 5.041,48 11.25,48L36.75,48C42.959,48 48,42.959 48,36.75L48,11.25Z" style="fill:rgb(36,41,56);"/><g transform="matrix(0.93348,0,0,0.93348,1.59627,1.14923)"><path d="M34.132,13.626C34.078,13.31 33.853,13.05 33.548,12.951C33.242,12.853 32.906,12.932 32.678,13.157L28.252,17.61L24.745,10.984C24.604,10.7 24.314,10.52 23.997,10.52C23.679,10.52 23.389,10.7 23.248,10.984L21.345,14.606L16.535,5.7C16.15,4.976 15.059,5.167 14.931,5.977L10.313,35.506L22.692,42.43C23.471,42.857 24.415,42.857 25.194,42.43L37.681,35.506L34.132,13.626Z" style="fill:url(#_Linear1);fill-rule:nonzero;"/><path d="M10.313,35.506L14.952,5.977C15.081,5.167 16.171,4.976 16.556,5.7L21.345,14.606L23.248,10.984C23.395,10.701 23.688,10.524 24.007,10.524C24.327,10.524 24.619,10.701 24.766,10.984L37.681,35.506L10.313,35.506Z" style="fill:rgb(255,160,0);fill-rule:nonzero;"/><rect x="8.602" y="12.71" width="18.602" height="23.649" style="fill:none;"/><path d="M26.306,24.001L21.324,14.606L10.313,35.506L26.306,24.001Z" style="fill:rgb(245,124,0);fill-rule:nonzero;"/><rect x="9.457" y="11.005" width="29.934" height="32.81" style="fill:none;"/><path d="M37.681,35.506L34.132,13.626C34.079,13.31 33.853,13.05 33.548,12.951C33.242,12.853 32.906,12.932 32.678,13.157L10.313,35.506L22.693,42.43C23.472,42.857 24.415,42.857 25.194,42.43L37.681,35.506Z" style="fill:rgb(255,202,40);fill-rule:nonzero;"/><path d="M34.132,13.626C34.079,13.31 33.853,13.05 33.548,12.951C33.242,12.853 32.906,12.932 32.678,13.157L28.252,17.61L24.745,10.984C24.604,10.7 24.314,10.52 23.997,10.52C23.679,10.52 23.389,10.7 23.248,10.984L21.345,14.606L16.535,5.7C16.15,4.976 15.059,5.167 14.931,5.977L10.313,35.506L10.291,35.506L10.313,35.527L10.441,35.591L28.23,17.823L32.678,13.391C32.906,13.166 33.242,13.087 33.548,13.186C33.853,13.284 34.079,13.544 34.132,13.86L37.638,35.527L37.681,35.506L34.132,13.626ZM10.355,35.464L14.952,6.19C15.081,5.38 16.171,5.189 16.556,5.913L21.345,14.819L23.248,11.197C23.395,10.914 23.688,10.737 24.008,10.737C24.327,10.737 24.619,10.914 24.767,11.197L28.187,17.674L10.355,35.464Z" style="fill:white;fill-opacity:0.2;fill-rule:nonzero;"/><path d="M25.194,42.217C24.415,42.643 23.471,42.643 22.692,42.217L10.334,35.314L10.313,35.506L22.692,42.43C23.471,42.857 24.415,42.857 25.194,42.43L37.681,35.506L37.659,35.314L25.194,42.217Z" style="fill:rgb(165,39,20);fill-opacity:0.2;fill-rule:nonzero;"/><path d="M34.132,13.626C34.078,13.31 33.853,13.05 33.548,12.951C33.242,12.853 32.906,12.932 32.678,13.157L28.252,17.61L24.745,10.984C24.604,10.7 24.314,10.52 23.997,10.52C23.679,10.52 23.389,10.7 23.248,10.984L21.345,14.606L16.535,5.7C16.15,4.976 15.059,5.167 14.931,5.977L10.313,35.506L22.692,42.43C23.471,42.857 24.415,42.857 25.194,42.43L37.681,35.506L34.132,13.626Z" style="fill:url(#_Linear2);fill-rule:nonzero;"/></g></g></g><g transform="matrix(1,0,0,1,112.5,0)"><g><path d="M48,11.25C48,5.041 42.959,0 36.75,0L11.25,0C5.041,0 0,5.041 0,11.25L0,36.75C0,42.959 5.041,48 11.25,48L36.75,48C42.959,48 48,42.959 48,36.75L48,11.25Z" style="fill:rgb(36,41,56);"/><g transform="matrix(0.959959,0,0,0.959959,0.960966,1.01723)"><path d="M42.042,22.33L25.67,5.958C25.446,5.734 25.18,5.556 24.887,5.434C24.594,5.313 24.28,5.25 23.962,5.25C23.645,5.25 23.331,5.313 23.038,5.434C22.745,5.556 22.479,5.734 22.255,5.958L18.857,9.356L23.169,13.669C24.172,13.317 25.321,13.557 26.12,14.357C26.5,14.738 26.766,15.218 26.886,15.743C27.007,16.268 26.977,16.816 26.801,17.325L30.957,21.482C31.963,21.135 33.123,21.359 33.926,22.164C34.193,22.431 34.404,22.748 34.549,23.096C34.693,23.445 34.767,23.819 34.767,24.196C34.767,24.574 34.693,24.947 34.548,25.296C34.404,25.645 34.192,25.961 33.925,26.228C33.658,26.495 33.341,26.707 32.993,26.851C32.644,26.996 32.27,27.07 31.893,27.07C31.515,27.07 31.142,26.995 30.793,26.851C30.444,26.706 30.127,26.495 29.861,26.228C29.017,25.384 28.808,24.142 29.235,23.102L25.358,19.226L25.358,29.427C25.64,29.566 25.897,29.75 26.12,29.971C26.387,30.238 26.598,30.554 26.743,30.903C26.887,31.252 26.962,31.625 26.962,32.003C26.962,32.38 26.887,32.754 26.743,33.102C26.598,33.451 26.387,33.768 26.12,34.035C25.853,34.302 25.536,34.513 25.188,34.658C24.839,34.802 24.465,34.877 24.088,34.877C23.711,34.877 23.337,34.802 22.988,34.658C22.639,34.513 22.323,34.302 22.056,34.035C21.789,33.768 21.577,33.451 21.432,33.103C21.287,32.754 21.213,32.38 21.213,32.003C21.213,31.625 21.287,31.252 21.432,30.903C21.577,30.554 21.789,30.237 22.056,29.971C22.334,29.694 22.642,29.484 22.997,29.344L22.997,19.048C22.655,18.907 22.334,18.7 22.056,18.421C21.652,18.018 21.378,17.504 21.268,16.944C21.158,16.385 21.217,15.805 21.437,15.279L17.183,11.027L5.957,22.242C5.732,22.466 5.554,22.733 5.433,23.026C5.311,23.319 5.249,23.633 5.249,23.95C5.249,24.267 5.311,24.582 5.433,24.875C5.554,25.168 5.732,25.434 5.957,25.658L22.33,42.029C22.554,42.254 22.82,42.431 23.113,42.553C23.406,42.674 23.72,42.737 24.037,42.737C24.355,42.737 24.669,42.674 24.962,42.553C25.255,42.431 25.521,42.254 25.745,42.029L42.042,25.758C42.267,25.534 42.445,25.267 42.566,24.974C42.688,24.681 42.75,24.367 42.75,24.05C42.75,23.733 42.688,23.418 42.566,23.125C42.445,22.832 42.267,22.566 42.042,22.342" style="fill:rgb(240,60,46);fill-rule:nonzero;"/></g></g></g><g transform="matrix(1,0,0,1,168.75,0)"><g><path d="M48,11.25C48,5.041 42.959,0 36.75,0L11.25,0C5.041,0 0,5.041 0,11.25L0,36.75C0,42.959 5.041,48 11.25,48L36.75,48C42.959,48 48,42.959 48,36.75L48,11.25Z" style="fill:rgb(36,41,56);"/><g transform="matrix(0.96,0,0,0.96,0.96,1.09432)"><path d="M24,5.625C13.646,5.625 5.25,14.02 5.25,24.375C5.25,32.66 10.622,39.688 18.073,42.167C19.01,42.341 19.354,41.76 19.354,41.265C19.354,40.818 19.336,39.341 19.328,37.774C14.112,38.909 13.011,35.562 13.011,35.562C12.158,33.395 10.929,32.819 10.929,32.819C9.228,31.655 11.057,31.679 11.057,31.679C12.94,31.811 13.932,33.611 13.932,33.611C15.604,36.477 18.318,35.649 19.388,35.17C19.556,33.958 20.042,33.131 20.578,32.662C16.414,32.188 12.036,30.58 12.036,23.396C12.036,21.349 12.768,19.676 13.968,18.363C13.773,17.891 13.131,15.984 14.149,13.401C14.149,13.401 15.724,12.897 19.307,15.323C20.803,14.908 22.407,14.699 24,14.692C25.594,14.699 27.199,14.908 28.697,15.323C32.276,12.897 33.848,13.401 33.848,13.401C34.869,15.984 34.227,17.891 34.032,18.363C35.234,19.676 35.962,21.349 35.962,23.396C35.962,30.598 31.576,32.183 27.4,32.647C28.073,33.229 28.672,34.37 28.672,36.12C28.672,38.628 28.65,40.648 28.65,41.265C28.65,41.764 28.988,42.349 29.938,42.165C37.384,39.683 42.75,32.657 42.75,24.375C42.75,14.02 34.355,5.625 24,5.625Z" style="fill:white;fill-rule:nonzero;"/></g></g></g><g transform="matrix(1,0,0,1,224.997,0)"><g><path d="M48,11.25C48,5.041 42.959,0 36.75,0L11.25,0C5.041,0 0,5.041 0,11.25L0,36.75C0,42.959 5.041,48 11.25,48L36.75,48C42.959,48 48,42.959 48,36.75L48,11.25Z" style="fill:rgb(36,41,56);"/><g transform="matrix(0.96,0,0,0.96,0.96,0.96)"><path d="M14.732,34.5L5.679,27.321L10.179,18.964L23.089,24L14.732,34.5Z" style="fill:url(#_Linear3);fill-rule:nonzero;"/></g><g transform="matrix(0.96,0,0,0.96,0.96,0.96)"><path d="M42.75,15.268L42.054,36.964L27.643,42.75L18.964,37.179L31.661,24L26.089,11.839L31.071,5.839L42.75,15.268Z" style="fill:url(#_Linear4);fill-rule:nonzero;"/></g><g transform="matrix(0.96,0,0,0.96,0.96,0.96)"><path d="M42.75,15.268L31.339,28.768L26.089,11.839L31.071,5.839L42.75,15.268Z" style="fill:url(#_Linear5);fill-rule:nonzero;"/></g><g transform="matrix(0.96,0,0,0.96,0.96,0.96)"><path d="M23.304,36.375L8.25,41.839L10.661,33.375L13.821,22.982L5.25,20.089L10.661,5.25L22.446,6.696L34.018,19.929L23.304,36.375Z" style="fill:url(#_Linear6);fill-rule:nonzero;"/></g><g transform="matrix(0.96,0,0,0.96,0.96,0.96)"><rect x="12.589" y="12.482" width="23.143" height="23.143" style="fill-rule:nonzero;"/></g><g transform="matrix(0.96,0,0,0.96,0.96,0.96)"><rect x="14.732" y="31.286" width="8.679" height="1.446" style="fill:white;fill-rule:nonzero;"/></g><g transform="matrix(0.96,0,0,0.96,0.96,0.96)"><path d="M21,17.25L21,15.482L16.179,15.482L16.179,17.25L17.571,17.25L17.571,23.304L16.179,23.304L16.179,25.071L21,25.071L21,23.304L19.661,23.304L19.661,17.25L21,17.25Z" style="fill:white;fill-rule:nonzero;"/></g><g transform="matrix(0.96,0,0,0.96,0.96,0.96)"><path d="M25.607,25.232C24.857,25.232 24.214,25.071 23.732,24.804C23.25,24.536 22.821,24.161 22.5,23.786L23.839,22.286C24.107,22.607 24.375,22.821 24.643,22.982C24.911,23.143 25.232,23.25 25.554,23.25C25.929,23.25 26.25,23.143 26.518,22.875C26.732,22.607 26.839,22.232 26.839,21.643L26.839,15.482L28.982,15.482L28.982,21.75C28.982,22.339 28.929,22.821 28.768,23.25C28.607,23.679 28.393,24 28.071,24.321C27.804,24.589 27.429,24.857 27,24.964C26.571,25.125 26.143,25.232 25.607,25.232Z" style="fill:white;fill-rule:nonzero;"/></g></g></g><g transform="matrix(1,0,0,1,281.25,0)"><g><path d="M48,11.25C48,5.041 42.959,0 36.75,0L11.25,0C5.041,0 0,5.041 0,11.25L0,36.75C0,42.959 5.041,48 11.25,48L36.75,48C42.959,48 48,42.959 48,36.75L48,11.25Z" style="fill:rgb(36,41,56);"/><g transform="matrix(0.959999,0,0,0.959999,1.05647,0.960029)"><path d="M19.056,34.241C19.056,34.241 17.617,35.117 20.059,35.368C23.008,35.744 24.567,35.681 27.822,35.055C27.822,35.055 28.699,35.62 29.889,36.057C22.562,39.188 13.295,35.87 19.056,34.241ZM18.117,30.171C18.117,30.171 16.552,31.361 18.994,31.611C22.186,31.924 24.692,31.987 29.012,31.111C29.012,31.111 29.576,31.738 30.515,32.051C21.687,34.68 11.793,32.3 18.117,30.172L18.117,30.171ZM35.399,37.31C35.399,37.31 36.463,38.186 34.209,38.875C30.014,40.127 16.614,40.504 12.858,38.875C11.543,38.311 14.047,37.497 14.861,37.372C15.675,37.184 16.113,37.184 16.113,37.184C14.673,36.182 6.533,39.251 11.98,40.134C26.945,42.576 39.281,39.069 35.399,37.316L35.399,37.31ZM19.745,25.913C19.745,25.913 12.92,27.542 17.302,28.104C19.181,28.354 22.875,28.292 26.319,28.042C29.137,27.791 31.961,27.29 31.961,27.29C31.961,27.29 30.959,27.729 30.27,28.167C23.314,29.984 9.977,29.17 13.797,27.291C17.054,25.726 19.745,25.913 19.745,25.913ZM31.954,32.738C38.968,29.106 35.711,25.6 33.457,26.039C32.893,26.164 32.643,26.289 32.643,26.289C32.643,26.289 32.831,25.913 33.269,25.789C37.715,24.223 41.222,30.485 31.829,32.927C31.829,32.927 31.892,32.864 31.954,32.739L31.954,32.738ZM20.434,42.631C27.196,43.069 37.528,42.381 37.778,39.187C37.778,39.187 37.278,40.439 32.206,41.378C26.445,42.442 19.307,42.317 15.112,41.628C15.112,41.628 15.988,42.379 20.434,42.63L20.434,42.631Z" style="fill:white;fill-rule:nonzero;"/></g><g transform="matrix(0.959999,0,0,0.959999,1.05647,0.960029)"><path d="M27.691,5.25C27.691,5.25 31.573,9.195 23.997,15.142C17.923,19.964 22.619,22.719 23.997,25.849C20.428,22.656 17.861,19.838 19.614,17.208C22.187,13.328 29.262,11.45 27.691,5.25ZM25.688,23.22C27.503,25.287 25.187,27.165 25.187,27.165C25.187,27.165 29.821,24.787 27.692,21.843C25.751,19.025 24.248,17.647 32.388,12.95C32.388,12.95 19.552,16.143 25.689,23.219L25.688,23.22Z" style="fill:rgb(245,130,25);fill-rule:nonzero;"/></g></g></g><defs><linearGradient id="_Linear1" x1="0" y1="0" x2="1" y2="0" gradientUnits="userSpaceOnUse" gradientTransform="matrix(34.0549,18.0744,-18.0744,34.0549,9.35962,11.6349)"><stop offset="0" style="stop-color:white;stop-opacity:0.1"/><stop offset="1" style="stop-color:white;stop-opacity:0"/></linearGradient><linearGradient id="_Linear2" x1="0" y1="0" x2="1" y2="0" gradientUnits="userSpaceOnUse" gradientTransform="matrix(34.0549,18.0744,-18.0744,34.0549,9.35962,11.6349)"><stop offset="0" style="stop-color:white;stop-opacity:0.1"/><stop offset="1" style="stop-color:white;stop-opacity:0"/></linearGradient><linearGradient id="_Linear3" x1="0" y1="0" x2="1" y2="0" gradientUnits="userSpaceOnUse" gradientTransform="matrix(17.4255,0,0,17.4255,5.673,26.7264)"><stop offset="0" style="stop-color:rgb(249,122,18);stop-opacity:1"/><stop offset="0.26" style="stop-color:rgb(249,122,18);stop-opacity:1"/><stop offset="0.46" style="stop-color:rgb(176,123,88);stop-opacity:1"/><stop offset="0.72" style="stop-color:rgb(87,123,174);stop-opacity:1"/><stop offset="0.91" style="stop-color:rgb(30,124,229);stop-opacity:1"/><stop offset="1" style="stop-color:rgb(8,124,250);stop-opacity:1"/></linearGradient><linearGradient id="_Linear4" x1="0" y1="0" x2="1" y2="0" gradientUnits="userSpaceOnUse" gradientTransform="matrix(28.7447,15.9052,-15.9052,28.7447,19.0539,18.5786)"><stop offset="0" style="stop-color:rgb(249,122,18);stop-opacity:1"/><stop offset="0.07" style="stop-color:rgb(203,122,62);stop-opacity:1"/><stop offset="0.15" style="stop-color:rgb(158,123,106);stop-opacity:1"/><stop offset="0.24" style="stop-color:rgb(117,123,145);stop-opacity:1"/><stop offset="0.33" style="stop-color:rgb(83,123,177);stop-opacity:1"/><stop offset="0.43" style="stop-color:rgb(56,124,204);stop-opacity:1"/><stop offset="0.54" style="stop-color:rgb(35,124,224);stop-opacity:1"/><stop offset="0.66" style="stop-color:rgb(20,124,239);stop-opacity:1"/><stop offset="0.79" style="stop-color:rgb(11,124,247);stop-opacity:1"/><stop offset="1" style="stop-color:rgb(8,124,250);stop-opacity:1"/></linearGradient><linearGradient id="_Linear5" x1="0" y1="0" x2="1" y2="0" gradientUnits="userSpaceOnUse" gradientTransform="matrix(-8.00231,-23.9113,23.9113,-8.00231,39.1221,28.2403)"><stop offset="0" style="stop-color:rgb(254,49,93);stop-opacity:1"/><stop offset="0.08" style="stop-color:rgb(203,65,126);stop-opacity:1"/><stop offset="0.16" style="stop-color:rgb(158,78,155);stop-opacity:1"/><stop offset="0.25" style="stop-color:rgb(117,91,180);stop-opacity:1"/><stop offset="0.34" style="stop-color:rgb(83,101,202);stop-opacity:1"/><stop offset="0.44" style="stop-color:rgb(56,109,219);stop-opacity:1"/><stop offset="0.54" style="stop-color:rgb(35,116,233);stop-opacity:1"/><stop offset="0.66" style="stop-color:rgb(20,120,243);stop-opacity:1"/><stop offset="0.79" style="stop-color:rgb(11,123,248);stop-opacity:1"/><stop offset="1" style="stop-color:rgb(8,124,250);stop-opacity:1"/></linearGradient><linearGradient id="_Linear6" x1="0" y1="0" x2="1" y2="0" gradientUnits="userSpaceOnUse" gradientTransform="matrix(24.0017,39.7001,-39.7001,24.0017,10.9931,14.0749)"><stop offset="0" style="stop-color:rgb(254,49,93);stop-opacity:1"/><stop offset="0.04" style="stop-color:rgb(246,52,98);stop-opacity:1"/><stop offset="0.1" style="stop-color:rgb(223,58,113);stop-opacity:1"/><stop offset="0.17" style="stop-color:rgb(194,67,131);stop-opacity:1"/><stop offset="0.29" style="stop-color:rgb(173,74,145);stop-opacity:1"/><stop offset="0.55" style="stop-color:rgb(117,91,180);stop-opacity:1"/><stop offset="0.92" style="stop-color:rgb(29,118,237);stop-opacity:1"/><stop offset="1" style="stop-color:rgb(8,124,250);stop-opacity:1"/></linearGradient></defs></svg>